<?xml version="1.0" encoding="utf-8"?><!-- Uploaded to: SVG Repo, www.svgrepo.com, Generator: SVG Repo Mixer Tools -->
<svg fill="#000000" width="800px" height="800px" viewBox="0 0 24 24" id="chat-left-3" data-name="Flat Line" xmlns="http://www.w3.org/2000/svg" class="icon flat-line"><path id="secondary" d="M3,5V15a1,1,0,0,0,1,1H8l5,3V16h3a1,1,0,0,0,1-1V5a1,1,0,0,0-1-1H4A1,1,0,0,0,3,5Z" style="fill: rgb(44, 169, 188); stroke-width: 2;"></path><path id="primary" d="M21,8V19a1,1,0,0,1-1,1H17" style="fill: none; stroke: rgb(0, 0, 0); stroke-linecap: round; stroke-linejoin: round; stroke-width: 2;"></path><path id="primary-2" data-name="primary" d="M3,5V15a1,1,0,0,0,1,1H8l5,3V16h3a1,1,0,0,0,1-1V5a1,1,0,0,0-1-1H4A1,1,0,0,0,3,5Z" style="fill: none; stroke: rgb(0, 0, 0); stroke-linecap: round; stroke-linejoin: round; stroke-width: 2;"></path></svg>